<svg width="131" height="26" fill="none" xmlns="http://www.w3.org/2000/svg"><g clip-path="url('#clip0_1038_1160')"><path d="M97.872 6.722c1.019 0 1.944.13 2.775.389.832.26 1.534.594 2.106 1.006.357.25.639.527.844.83.206.305.309.698.309 1.18v9.387l-.005.255c-.029.84-.206 1.573-.532 2.199a4.923 4.923 0 0 1-1.461 1.716c-.617.456-1.341.791-2.172 1.006-.832.214-1.721.322-2.669.322-1.627 0-2.905-.22-3.835-.657-.93-.439-1.394-1.15-1.394-2.132 0-.412.085-.774.255-1.086.17-.313.362-.55.576-.711a9.009 9.009 0 0 0 1.757.724 6.981 6.981 0 0 0 2.025.295c.965 0 1.734-.161 2.306-.483.572-.322.858-.84.858-1.555v-.43l-.204.084c-.693.266-1.519.4-2.478.4-.804 0-1.569-.121-2.293-.363a5.129 5.129 0 0 1-1.904-1.126c-.545-.51-.983-1.167-1.314-1.971-.33-.805-.496-1.761-.496-2.87 0-1.09.174-2.038.523-2.842.349-.805.831-1.47 1.448-1.998s1.35-.92 2.2-1.18c.849-.26 1.774-.389 2.775-.389Zm-72.186.416c1.595 0 2.9.358 3.915 1.074 1.014.715 1.615 1.979 1.802 3.791h-3.407l-.032-.2a2.92 2.92 0 0 0-.446-1.083c-.373-.514-.953-.77-1.738-.77-1.12 0-1.886.556-2.298 1.668-.218.591-.327 1.377-.327 2.357 0 .933.109 1.683.327 2.251.396 1.058 1.143 1.587 2.24 1.587.777 0 1.33-.21 1.656-.63.327-.42.525-.965.595-1.633h3.395l-.023.232c-.113.925-.47 1.805-1.074 2.637-1.042 1.455-2.586 2.182-4.631 2.182-2.046 0-3.55-.607-4.515-1.82-.964-1.213-1.447-2.788-1.447-4.725 0-2.185.533-3.884 1.599-5.098 1.065-1.213 2.535-1.82 4.41-1.82Zm30.898-.035c1.057 0 2.01.199 2.858.595.847.397 1.547 1.023 2.1 1.879.497.754.82 1.629.968 2.624.085.584.12 1.424.105 2.52h-8.703l.012.221c.083 1.159.48 1.98 1.19 2.462.458.32 1.01.479 1.656.479.684 0 1.24-.195 1.668-.584.234-.21.44-.501.619-.875h3.395l-.026.175c-.122.698-.507 1.406-1.153 2.124-1.089 1.236-2.613 1.855-4.573 1.855-1.618 0-3.045-.521-4.281-1.564-1.237-1.042-1.855-2.737-1.855-5.086 0-2.201.558-3.889 1.674-5.063 1.116-1.174 2.565-1.762 4.346-1.762Zm23.344-4.672c.394 0 .747.027 1.06.08.313.054.576.162.79.322.215.161.38.38.497.657.116.278.174.64.174 1.087V20.13l-.09.016c-.191.034-.452.078-.781.131a7.246 7.246 0 0 1-2.226.014 1.804 1.804 0 0 1-.791-.322c-.215-.161-.38-.38-.496-.657-.117-.277-.175-.64-.175-1.086V2.673l.09-.017c.192-.034.452-.077.782-.13a7.25 7.25 0 0 1 1.166-.095Zm6.854 4.64c.393 0 .746.026 1.059.08.313.054.577.161.791.322.215.16.38.38.496.657.116.277.174.64.174 1.086v10.915l-.09.016c-.191.034-.452.078-.781.131a7.246 7.246 0 0 1-2.226.014 1.804 1.804 0 0 1-.791-.322c-.215-.161-.38-.38-.496-.657-.116-.277-.175-.64-.175-1.086V7.312l.09-.016c.192-.034.453-.078.782-.131a7.25 7.25 0 0 1 1.167-.094Zm21.349-4.64c.393 0 .746.027 1.059.08a1.8 1.8 0 0 1 .791.322c.215.161.38.38.496.657.117.278.175.64.175 1.087v2.628l.092-.034c.23-.082.552-.173.967-.275a6.59 6.59 0 0 1 1.569-.174c1.77 0 3.151.443 4.143 1.327.992.885 1.488 2.204 1.488 3.956v8.126l-.082.023a7.335 7.335 0 0 1-.762.138c-.385.053-.782.08-1.194.08-.393 0-.746-.027-1.059-.08a1.8 1.8 0 0 1-.791-.322c-.215-.161-.38-.38-.496-.657-.116-.277-.175-.64-.175-1.086v-5.954l-.003-.165c-.026-.646-.208-1.104-.546-1.377-.367-.295-.818-.442-1.355-.442-.357 0-.697.045-1.019.134-.321.09-.581.197-.777.322v9.386l-.083.023a7.335 7.335 0 0 1-.762.138c-.384.053-.782.08-1.193.08-.394 0-.747-.027-1.06-.08a1.805 1.805 0 0 1-.791-.322 1.55 1.55 0 0 1-.496-.657c-.116-.277-.174-.64-.174-1.086V2.673l.09-.017c.191-.034.452-.077.781-.13a7.254 7.254 0 0 1 1.167-.095ZM76.025 3.906l.062.104c.1.183.192.412.273.687.099.331.148.675.148 1.033 0 .697-.147 1.193-.442 1.488-.296.295-.693.443-1.194.443H69.24v3.03h5.874l.07.104c.112.18.21.406.292.674.098.322.147.661.147 1.019 0 .68-.147 1.166-.442 1.461-.295.295-.693.443-1.194.443h-4.693v5.658l-.091.023a8.717 8.717 0 0 1-.834.138c-.42.054-.836.08-1.247.08-.411 0-.773-.03-1.086-.093a1.928 1.928 0 0 1-.791-.335 1.449 1.449 0 0 1-.483-.67c-.107-.287-.161-.662-.161-1.127V6.4l.005-.189c.034-.68.256-1.225.666-1.634.446-.447 1.054-.67 1.823-.67h8.93Zm-63.03-.92v3.02H4.372v3.956h7.548v2.986H4.373v7.21H.803V2.985h12.191Zm4.87 4.456v12.716h-3.372V7.442h3.372ZM36.238 3.02v9.263L40.38 7.5h4.118l-4.445 4.865 4.62 7.793H40.66l-3.045-5.437-1.377 1.435v4.002h-3.266V3.02h3.266Zm12.769-.058v17.196h-3.325V2.962h3.325Zm70.153.834c.557-.168 1.508-.205 2.622.287 1.124.498 1.825 1.35 2.103 2.558l6.034.513c.075.005.149.02.223.046.111.039.17.093.22.136a.707.707 0 0 1 .221.331.866.866 0 0 1-.063.77c-.218.336-.559.553-1.024.652l-4.871 1.035.86 4.045c.099.465.316.764.653.898.336.134.772.144 1.308.03.268-.057.54-.138.817-.244.276-.105.514-.216.713-.333.202.162.387.351.554.568.168.216.288.494.36.833.266 1.255-1.708 2.44-3.002 2.673-1.199.215-3.038.394-4.09-2.36a281.175 281.175 0 0 1-3.963-11.22c-.109-.332-.176-.658-.059-.927.063-.146.109-.208.384-.291Zm-21.074 6.493c-.876 0-1.533.246-1.97.737-.439.492-.658 1.194-.658 2.105 0 1.037.22 1.784.657 2.24.438.456.997.684 1.676.684.733 0 1.315-.17 1.744-.51v-4.934l-.082-.043a3.185 3.185 0 0 0-.468-.172 3.21 3.21 0 0 0-.899-.107Zm-41.502-.444c-.77 0-1.367.241-1.791.723-.424.482-.69 1.136-.8 1.96h5.169c-.055-.879-.321-1.546-.8-2-.478-.456-1.07-.683-1.779-.683Zm-38.72-6.988v3.068h-3.37V2.857h3.37ZM87.024 1.09c.75 0 1.354.233 1.81.698.456.464.684 1.037.684 1.716 0 .68-.228 1.251-.684 1.716-.456.465-1.06.697-1.81.697s-1.354-.232-1.81-.697c-.456-.465-.684-1.037-.684-1.716 0-.68.228-1.252.684-1.716.456-.465 1.06-.698 1.81-.698Z" fill="url('#paint0_linear_1038_1160')"/></g><defs><linearGradient id="paint0_linear_1038_1160" x1="121.217" y1="12.766" x2="1.996" y2="24.902" gradientUnits="userSpaceOnUse"><stop stop-color="#299BD8"/><stop offset="1" stop-color="#1262AF"/></linearGradient><clipPath id="clip0_1038_1160"><path fill="#fff" transform="translate(.803 .698)" d="M0 0h130.072v24.669H0z"/></clipPath></defs></svg>