<svg width="24" height="24" fill="none" xmlns="http://www.w3.org/2000/svg"><path d="M16.032 1.207a2.64 2.64 0 0 0-1.856-.762 2.64 2.64 0 0 0-1.857.762L.786 12.633a2.6 2.6 0 0 0-.769 1.84 2.581 2.581 0 0 0 .77 1.84l1.368 1.354c.595.591 1.432.486 1.937.188a1.47 1.47 0 0 1 1.777.22 1.44 1.44 0 0 1 .223 1.76c-.3.502-.407 1.33.19 1.92l1.369 1.356a2.628 2.628 0 0 0 1.857.762 2.648 2.648 0 0 0 1.857-.762l11.532-11.424a2.6 2.6 0 0 0 .77-1.84 2.58 2.58 0 0 0-.77-1.84L21.53 6.652c-.596-.59-1.434-.486-1.94-.188a1.47 1.47 0 0 1-1.776-.22 1.44 1.44 0 0 1-.223-1.76c.301-.501.407-1.33-.19-1.92l-1.367-1.357h-.002Z" fill="#fff"/></svg>