<svg width="50" height="50" fill="none" xmlns="http://www.w3.org/2000/svg"><rect x=".367" y=".719" width="48.879" height="48.879" rx="11.961" fill="#36DA76"/><path d="M31.137 34.686c-.041-.877-.096-1.75-.14-2.62-.14-2.724-.128-5.487-.276-8.224-.147-2.716-.06-5.434-.137-8.15-.016-.565.01-1.68-.575-2.002-1.256-.691-2.002 1.194-2.322 1.962-.576 1.394-.91 2.86-1.32 4.303-.352 1.236-.751 2.468-.887 3.747-.1.96-.09 2.035.41 2.9.253.435.688.73 1.184.856.515.131 1.103-.041 1.591.191.126.061.237.188.288.315.158.412.008 1.036-.041 1.46-.157 1.367-.323 2.748-.397 4.121-.044.83-.092 1.895.41 2.618.308.44.932.85 1.496.632.841-.322.75-1.41.716-2.109ZM20.427 14.296c-.242.098-.15.962-.161 1.228-.016.478.017 1.11-.04 1.728l-.003.013c-.005.043-.009.09-.016.139-.008.047-.015.093-.021.14-.052.301-.15.659-.336.83-.21.196-.682.155-.846-.077-.269-.377-.248-1.218-.265-1.243a37.644 37.644 0 0 0-.156-2.395c-.007-.06-.018-.42-.347-.458-.153-.017-.314.114-.367.352-.154.704-.298 2.045-.307 2.256a.82.82 0 0 0-.003.064v.006c-.002.043-.054 1.094-.32 1.457-.139.19-.5.34-.858.138-.143-.08-.24-.237-.31-.404-.375-1.167-.038-2.453.01-3.066.014-.172.17-.747-.178-.728-.524.029-1.201 2.262-1.322 2.774-.297 1.273-.342 2.634.174 3.863.287.68.848 1.237 1.543 1.507.308.118.65.204 1.01.254-.13 2.896-.277 5.917-.412 7.599-.103 1.265-.225 2.545-.209 3.815.01.76.002 1.665.5 2.301.522.665 1.621.36 1.918-.426.333-.886.236-1.919.123-3.545-.114-1.628-.242-3.85-.313-5.045a89.49 89.49 0 0 1-.15-4.7c.927-.132 1.79-.53 2.274-1.26.212-.32.351-.677.447-1.044a5.748 5.748 0 0 0 .186-1.74c-.032-.529-.467-4.644-1.245-4.333Z" fill="#fff"/></svg>