<svg width="89" height="19" fill="none" xmlns="http://www.w3.org/2000/svg"><path stroke="#CCC" stroke-width=".748" stroke-dasharray="2.24 2.24" d="M4.181 9.28H81.59"/><g clip-path="url('#clip0_1038_1229')"><path d="M43.487 16.694h-1.02a.66.66 0 0 1-.294-.069.595.595 0 0 1-.222-.188.519.519 0 0 1-.043-.535l2.471-4.985-3.711-.075-1.354 1.499c-.258.296-.464.428-.989.428h-.687a.732.732 0 0 1-.315-.06.668.668 0 0 1-.249-.187.585.585 0 0 1-.093-.575l.76-2.488a.58.58 0 0 1 .02-.06.489.489 0 0 1-.02-.056l-.761-2.504a.575.575 0 0 1 .098-.563.636.636 0 0 1 .23-.174c.09-.04.19-.061.292-.06h.725c.392 0 .773.16.997.42l1.326 1.474 3.731-.051-2.47-4.976a.518.518 0 0 1 .042-.535.595.595 0 0 1 .222-.188.66.66 0 0 1 .293-.069h1.032c.144.003.285.035.414.094.128.06.24.145.328.25l4.795 5.326 2.215-.054c.162-.008.612-.01.716-.01 2.118 0 3.384.63 3.384 1.682 0 .332-.145.947-1.115 1.338-.572.23-1.336.348-2.27.348-.103 0-.551-.003-.716-.01l-2.214-.055-4.807 5.326a.943.943 0 0 1-.328.248c-.128.06-.27.091-.413.094Z" fill="#1262AE"/></g><circle cx="4.375" cy="9.653" r="2.99" fill="#fff" stroke="#1262AE" stroke-width="1.495"/><circle cx="84.624" cy="9.342" r="2.99" fill="#fff" stroke="#1262AE" stroke-width="1.495"/><defs><clipPath id="clip0_1038_1229"><path fill="#fff" transform="translate(36.331 .435)" d="M0 0h19.632v17.941H0z"/></clipPath></defs></svg>