<svg width="368" height="70" fill="none" xmlns="http://www.w3.org/2000/svg"><g clip-path="url('#clip0_149_765')"><path d="M274.239 17.573c2.873 0 5.482.363 7.826 1.09 2.344.726 4.322 1.665 5.935 2.817 1.008.701 1.802 1.478 2.382 2.33.58.85.87 1.953.87 3.305v26.297l-.013.715c-.083 2.353-.583 4.406-1.5 6.16a13.83 13.83 0 0 1-4.121 4.808c-1.739 1.277-3.78 2.216-6.124 2.817s-4.852.902-7.524.902c-4.587 0-8.191-.614-10.813-1.84-2.621-1.228-3.932-3.219-3.932-5.974 0-1.152.24-2.166.719-3.043.479-.876 1.021-1.54 1.626-1.99 1.461.8 3.112 1.477 4.952 2.028 1.84.55 3.743.826 5.709.826 2.722 0 4.89-.45 6.503-1.352 1.613-.902 2.419-2.354 2.419-4.358V51.91l-.574.235c-1.954.745-4.283 1.117-6.987 1.117-2.268 0-4.423-.338-6.465-1.014a14.48 14.48 0 0 1-5.368-3.155c-1.538-1.428-2.773-3.269-3.706-5.523-.932-2.254-1.398-4.934-1.398-8.039 0-3.055.491-5.71 1.474-7.964.983-2.254 2.344-4.12 4.083-5.598 1.739-1.477 3.806-2.58 6.201-3.305 2.394-.727 5.003-1.09 7.826-1.09ZM70.708 18.74c4.495 0 8.174 1.002 11.035 3.007 2.862 2.004 4.556 5.545 5.082 10.622H77.22l-.092-.562a8.15 8.15 0 0 0-1.256-3.034c-1.053-1.438-2.686-2.157-4.901-2.157-3.158 0-5.318 1.558-6.48 4.674-.614 1.656-.921 3.857-.921 6.602 0 2.615.307 4.718.92 6.308 1.12 2.964 3.224 4.445 6.316 4.445 2.193 0 3.75-.588 4.671-1.765.921-1.176 1.48-2.701 1.678-4.575h9.572l-.066.65c-.317 2.594-1.326 5.057-3.026 7.39-2.939 4.075-7.292 6.112-13.059 6.112-5.767 0-10.01-1.7-12.73-5.099-2.719-3.399-4.078-7.811-4.078-13.237 0-6.123 1.502-10.884 4.506-14.283 3.004-3.399 7.149-5.098 12.434-5.098Zm87.115-.098c2.983 0 5.669.555 8.059 1.666 2.39 1.112 4.364 2.866 5.921 5.262 1.403 2.114 2.313 4.565 2.73 7.354.241 1.635.34 3.988.296 7.06h-24.538l.033.62c.235 3.245 1.353 5.544 3.355 6.898 1.294.893 2.851 1.34 4.671 1.34 1.929 0 3.497-.545 4.703-1.635.658-.588 1.239-1.405 1.744-2.451h9.572l-.071.488c-.346 1.956-1.43 3.94-3.252 5.95-3.07 3.465-7.368 5.197-12.894 5.197-4.561 0-8.585-1.46-12.071-4.38-3.487-2.919-5.23-7.669-5.23-14.25 0-6.166 1.573-10.894 4.72-14.184 3.147-3.29 7.231-4.936 12.252-4.936Zm65.823-13.09c1.109 0 2.105.075 2.987.225.882.15 1.626.451 2.23.902.605.45 1.072 1.064 1.399 1.84.328.777.492 1.791.492 3.043V55.14l-.254.045c-.54.095-1.275.218-2.204.368-1.083.175-2.18.263-3.289.263s-2.104-.075-2.987-.225c-.882-.15-1.625-.451-2.23-.902-.605-.45-1.071-1.064-1.399-1.84-.328-.777-.492-1.791-.492-3.044V6.228l.254-.045c.54-.095 1.275-.218 2.204-.368a20.565 20.565 0 0 1 3.289-.263Zm19.323 12.998c1.109 0 2.104.075 2.987.225.882.15 1.625.451 2.23.902.605.45 1.071 1.064 1.399 1.84.328.777.492 1.791.492 3.044V55.14l-.254.045c-.54.095-1.275.218-2.204.368-1.084.175-2.18.263-3.289.263s-2.105-.075-2.987-.225c-.882-.15-1.626-.451-2.23-.902-.605-.45-1.072-1.064-1.399-1.84-.328-.777-.492-1.791-.492-3.044V19.226l.254-.045c.54-.095 1.275-.218 2.204-.368a20.557 20.557 0 0 1 3.289-.263Zm60.195-12.998c1.109 0 2.105.075 2.987.225.882.15 1.626.451 2.231.902.605.45 1.071 1.064 1.398 1.84.328.777.492 1.791.492 3.043v7.364l.262-.096c.647-.227 1.556-.484 2.725-.768 1.336-.326 2.81-.489 4.423-.489 4.991 0 8.885 1.24 11.682 3.72 2.798 2.479 4.197 6.173 4.197 11.081V55.14l-.234.064c-.503.129-1.219.258-2.148.387-1.084.15-2.205.225-3.365.225-1.109 0-2.104-.075-2.986-.225-.883-.15-1.626-.451-2.231-.902-.605-.45-1.071-1.064-1.399-1.84-.328-.777-.491-1.791-.491-3.044v-16.68l-.009-.462c-.074-1.809-.588-3.094-1.541-3.857-1.034-.827-2.307-1.24-3.819-1.24-1.008 0-1.966.125-2.873.376-.908.25-1.639.55-2.193.901V55.14l-.234.064c-.503.129-1.219.258-2.148.387-1.084.15-2.205.225-3.365.225-1.109 0-2.104-.075-2.986-.225-.883-.15-1.626-.451-2.231-.902-.605-.45-1.071-1.064-1.399-1.84-.328-.777-.491-1.791-.491-3.044V6.228l.253-.045a173.2 173.2 0 0 1 2.204-.368 20.565 20.565 0 0 1 3.289-.263Zm-90.523 4.132.173.291c.284.512.541 1.153.772 1.926.277.926.416 1.89.416 2.892 0 1.954-.416 3.344-1.248 4.17-.831.827-1.953 1.24-3.365 1.24h-15.878v8.49h16.559l.196.29c.319.508.594 1.137.825 1.889.277.901.416 1.853.416 2.855 0 1.903-.416 3.268-1.248 4.095-.832.826-1.953 1.24-3.365 1.24h-13.232v15.852l-.257.065c-.553.129-1.336.257-2.352.386-1.184.15-2.356.226-3.516.226-1.159 0-2.18-.088-3.062-.263-.882-.176-1.626-.489-2.231-.94-.605-.45-1.058-1.076-1.361-1.878-.302-.801-.454-1.853-.454-3.155V16.672l.014-.53c.096-1.905.722-3.432 1.877-4.58 1.26-1.252 2.974-1.878 5.141-1.878h25.18Zm-177.72-2.58v8.465H10.613v11.08h21.282v8.367H10.613v20.199H.548V7.104H34.92ZM48.653 19.59v35.626h-9.506V19.589h9.506ZM100.46 7.202v25.951l11.677-13.4h11.611l-12.532 13.629 13.026 21.833h-11.316l-8.585-15.23-3.881 4.02v11.21h-9.21V7.202h9.21Zm36.001-.163v48.176h-9.375V7.039h9.375Zm197.801 2.336c1.571-.47 4.253-.574 7.393.806 3.169 1.393 5.146 3.781 5.93 7.166l17.013 1.437c.211.012.42.055.629.127.312.11.48.263.621.383.345.294.458.521.622.927.293.723.204 1.574-.177 2.157-.615.94-1.577 1.55-2.886 1.826l-13.735 2.9 2.425 11.334c.278 1.301.892 2.14 1.84 2.514.949.375 2.179.403 3.689.084.756-.16 1.523-.387 2.302-.682a13.526 13.526 0 0 0 2.011-.935 9.412 9.412 0 0 1 1.564 1.592c.472.606.809 1.385 1.013 2.336.751 3.514-4.816 6.835-8.465 7.486-3.379.604-8.566 1.105-11.53-6.612-2.964-7.717-7.621-20.653-11.175-31.433-.307-.93-.497-1.844-.167-2.598.179-.407.308-.583 1.083-.815Zm-59.417 18.19c-2.471 0-4.323.69-5.558 2.067-1.235 1.377-1.853 3.343-1.853 5.898 0 2.905.618 4.996 1.853 6.274 1.235 1.277 2.81 1.915 4.726 1.915 2.067 0 3.705-.475 4.915-1.427V28.467l-.232-.12a9.028 9.028 0 0 0-1.318-.48c-.681-.2-1.525-.301-2.533-.301Zm-117.021-1.243c-2.171 0-3.854.676-5.049 2.027-1.195 1.35-1.946 3.18-2.253 5.49h14.572c-.154-2.462-.905-4.33-2.253-5.605-1.349-1.274-3.021-1.912-5.017-1.912ZM48.653 6.745v8.595h-9.506V6.745h9.506Zm194.996-4.95c2.118 0 3.819.651 5.104 1.954 1.286 1.302 1.928 2.905 1.928 4.808 0 1.904-.642 3.506-1.928 4.809-1.285 1.302-2.986 1.953-5.104 1.953-2.117 0-3.818-.651-5.104-1.953-1.285-1.303-1.928-2.905-1.928-4.809 0-1.903.643-3.506 1.928-4.808 1.286-1.303 2.987-1.954 5.104-1.954Z" fill="#fff"/></g><defs><clipPath id="clip0_149_765"><path fill="#fff" transform="translate(.548 .695)" d="M0 0h366.746v69.113H0z"/></clipPath></defs></svg>