<svg width="131" height="26" fill="none" xmlns="http://www.w3.org/2000/svg"><g clip-path="url('#clip0_1038_1489')"><path d="M97.862 6.942c1.02 0 1.944.13 2.776.389.831.259 1.533.594 2.105 1.005.357.25.639.528.845.832.205.304.308.697.308 1.18v9.386l-.004.255c-.03.84-.207 1.573-.532 2.198a4.935 4.935 0 0 1-1.462 1.717c-.617.456-1.341.791-2.172 1.006-.832.214-1.721.321-2.668.321-1.628 0-2.906-.219-3.836-.657-.93-.438-1.394-1.148-1.394-2.132 0-.41.085-.773.255-1.086.17-.313.362-.55.576-.71a9.012 9.012 0 0 0 1.757.724 6.978 6.978 0 0 0 2.025.295c.965 0 1.734-.161 2.306-.483.572-.322.858-.84.858-1.555v-.43l-.204.084c-.693.266-1.519.4-2.478.4-.804 0-1.569-.122-2.293-.363a5.129 5.129 0 0 1-1.904-1.126c-.545-.51-.983-1.167-1.314-1.971-.33-.805-.496-1.761-.496-2.87 0-1.09.175-2.038.523-2.843.349-.804.832-1.47 1.448-1.997.617-.528 1.35-.921 2.2-1.18.849-.26 1.774-.39 2.775-.39Zm-72.185.416c1.594 0 2.899.358 3.914 1.073 1.014.716 1.615 1.98 1.802 3.792h-3.407l-.032-.2a2.92 2.92 0 0 0-.446-1.083c-.373-.514-.953-.77-1.738-.77-1.12 0-1.886.556-2.298 1.668-.218.59-.327 1.376-.327 2.356 0 .934.109 1.684.327 2.252.396 1.058 1.143 1.586 2.24 1.586.777 0 1.33-.21 1.656-.63.327-.42.525-.964.595-1.633h3.395l-.023.233c-.113.925-.47 1.804-1.074 2.637-1.042 1.454-2.586 2.182-4.631 2.182-2.046 0-3.55-.607-4.515-1.82-.964-1.213-1.446-2.788-1.446-4.725 0-2.185.532-3.885 1.598-5.098 1.065-1.213 2.535-1.82 4.41-1.82Zm30.897-.035c1.057 0 2.01.198 2.858.595.847.397 1.547 1.023 2.1 1.878.497.755.82 1.63.968 2.625.086.583.12 1.423.105 2.52h-8.703l.012.221c.083 1.158.48 1.98 1.19 2.462.459.319 1.01.479 1.656.479.685 0 1.24-.195 1.669-.584.233-.21.439-.502.618-.875h3.395l-.026.175c-.122.698-.507 1.405-1.153 2.123-1.088 1.237-2.613 1.855-4.573 1.855-1.617 0-3.045-.52-4.281-1.563-1.237-1.042-1.855-2.738-1.855-5.086 0-2.201.558-3.889 1.674-5.063 1.116-1.175 2.565-1.762 4.346-1.762Zm23.345-4.672c.393 0 .746.027 1.059.08.313.054.577.161.791.322.215.161.38.38.496.657.116.277.174.64.174 1.086V20.35l-.09.017c-.191.034-.452.077-.781.131a7.246 7.246 0 0 1-2.226.013 1.804 1.804 0 0 1-.791-.321c-.215-.161-.38-.38-.496-.657-.116-.277-.175-.64-.175-1.087V2.893l.09-.016c.192-.034.453-.078.782-.131a7.249 7.249 0 0 1 1.167-.094Zm6.853 4.64c.393 0 .746.026 1.059.08.313.053.577.16.791.322.215.16.38.38.496.657.117.277.175.639.175 1.086V20.35l-.09.016c-.192.034-.453.077-.782.131a7.245 7.245 0 0 1-2.226.013 1.805 1.805 0 0 1-.791-.321c-.215-.161-.38-.38-.496-.657-.116-.277-.174-.64-.174-1.087V7.533l.09-.016c.191-.034.452-.078.781-.132a7.249 7.249 0 0 1 1.167-.094Zm21.349-4.64c.393 0 .746.027 1.059.08a1.8 1.8 0 0 1 .791.322c.215.161.38.38.496.657.117.277.175.64.175 1.086v2.628l.093-.034c.229-.08.552-.172.966-.274a6.59 6.59 0 0 1 1.569-.174c1.77 0 3.151.442 4.143 1.327s1.489 2.204 1.489 3.956v8.126l-.083.023a7.309 7.309 0 0 1-.762.137c-.385.054-.782.08-1.194.08a6.3 6.3 0 0 1-1.059-.08 1.805 1.805 0 0 1-.791-.321c-.215-.161-.38-.38-.496-.657-.116-.277-.174-.64-.174-1.087v-5.953l-.004-.165c-.026-.646-.208-1.105-.546-1.377-.367-.295-.818-.443-1.354-.443-.358 0-.698.045-1.02.135-.321.089-.581.196-.777.321v9.386l-.083.023a7.258 7.258 0 0 1-.762.138c-.384.054-.782.08-1.193.08-.394 0-.747-.026-1.06-.08a1.805 1.805 0 0 1-.791-.321 1.55 1.55 0 0 1-.496-.657c-.116-.277-.174-.64-.174-1.087V2.893l.09-.016c.191-.034.452-.078.781-.131a7.262 7.262 0 0 1 1.167-.094ZM76.015 4.126l.062.104c.1.182.192.411.274.687.098.33.147.675.147 1.032 0 .698-.147 1.194-.442 1.489-.295.295-.693.442-1.194.442h-5.631v3.03h5.873l.07.104c.112.182.21.406.292.675.098.321.147.661.147 1.018 0 .68-.147 1.167-.442 1.462-.295.295-.693.443-1.194.443h-4.693v5.658l-.09.023a8.749 8.749 0 0 1-.835.138c-.42.054-.836.08-1.247.08-.411 0-.773-.03-1.086-.093a1.93 1.93 0 0 1-.791-.336 1.449 1.449 0 0 1-.483-.67c-.107-.286-.16-.662-.16-1.126V6.62l.004-.189c.034-.68.256-1.225.666-1.635.447-.447 1.054-.67 1.823-.67h8.93Zm-63.03-.921v3.021H4.362v3.955h7.548v2.987H4.363v7.21H.793V3.204h12.191Zm4.87 4.456v12.716h-3.372V7.661h3.372ZM36.228 3.24v9.263L40.37 7.72h4.118l-4.445 4.864 4.62 7.793H40.65l-3.045-5.436-1.377 1.435v4.001h-3.266V3.24h3.266Zm12.769-.058v17.195h-3.325V3.182h3.325Zm70.153.834c.557-.168 1.508-.205 2.622.287 1.124.497 1.825 1.35 2.103 2.558l6.034.513c.075.004.149.02.223.045.111.04.17.094.22.137a.707.707 0 0 1 .221.331.866.866 0 0 1-.063.77c-.218.336-.559.553-1.024.651l-4.871 1.036.86 4.045c.099.465.317.764.653.898.336.133.773.143 1.308.03.268-.058.54-.139.817-.244.276-.105.514-.217.713-.334.202.163.387.352.555.568.167.217.287.495.359.834.266 1.255-1.708 2.44-3.002 2.672-1.199.216-3.038.395-4.09-2.36a282.716 282.716 0 0 1-3.963-11.22c-.109-.331-.176-.657-.059-.926.063-.146.109-.209.384-.291Zm-21.074 6.492c-.875 0-1.532.246-1.97.738-.439.492-.658 1.193-.658 2.105 0 1.037.22 1.783.657 2.24.438.455.997.683 1.676.683.733 0 1.315-.17 1.744-.51V10.83l-.082-.043a3.197 3.197 0 0 0-.468-.171 3.205 3.205 0 0 0-.898-.107Zm-41.502-.443c-.77 0-1.367.24-1.791.723-.424.482-.69 1.135-.8 1.96h5.169c-.055-.88-.321-1.546-.8-2.001-.478-.455-1.07-.682-1.778-.682Zm-38.72-6.988v3.068h-3.37V3.077h3.37Zm69.16-1.767c.75 0 1.353.232 1.81.697.455.465.683 1.037.683 1.717 0 .679-.228 1.251-.684 1.716-.456.465-1.059.697-1.81.697-.75 0-1.354-.232-1.81-.697-.456-.465-.684-1.037-.684-1.716 0-.68.228-1.252.684-1.717.456-.465 1.06-.697 1.81-.697Z" fill="#fff"/></g><defs><clipPath id="clip0_1038_1489"><path fill="#fff" transform="translate(.793 .917)" d="M0 0h130.072v24.669H0z"/></clipPath></defs></svg>