<svg width="19" height="19" fill="none" xmlns="http://www.w3.org/2000/svg"><g clip-path="url('#clip0_1038_1176')"><path d="M17.027 13.93a7.18 7.18 0 0 1-1.251-1.46 6.293 6.293 0 0 1-.673-2.397V7.611a5.387 5.387 0 0 0-4.704-5.357v-.643a.665.665 0 1 0-1.331 0v.653a5.387 5.387 0 0 0-4.65 5.347v2.462a6.295 6.295 0 0 1-.673 2.397 7.179 7.179 0 0 1-1.23 1.46.498.498 0 0 0-.17.374v.678a.498.498 0 0 0 .498.499h13.855a.499.499 0 0 0 .498-.499v-.678a.497.497 0 0 0-.17-.373Zm-13.645.554c.463-.448.871-.95 1.216-1.495.48-.902.76-1.896.822-2.916V7.611a4.356 4.356 0 1 1 8.706 0v2.462a7.098 7.098 0 0 0 .822 2.916 8.058 8.058 0 0 0 1.216 1.495H3.383ZM9.796 17.116a1.331 1.331 0 0 0 1.285-1.137H8.46a1.33 1.33 0 0 0 1.336 1.137Z" fill="#424242"/><circle cx="14.622" cy="4.126" r="2.616" fill="#F99A0E" stroke="#fff" stroke-width=".748"/></g><defs><clipPath id="clip0_1038_1176"><path fill="#fff" transform="translate(.825 .061)" d="M0 0h17.941v17.941H0z"/></clipPath></defs></svg>