<svg width="98" height="23" fill="none" xmlns="http://www.w3.org/2000/svg"><g clip-path="url('#clip0_1038_1495')"><path d="M12.007.966C6.06.966 1.242 5.786 1.242 11.731s4.82 10.764 10.765 10.764 10.764-4.82 10.764-10.764c0-5.946-4.82-10.765-10.764-10.765Zm2.55 7.439h-1.619c-.191 0-.405.252-.405.587v1.169h2.024l-.306 1.666h-1.717v5.002h-1.91v-5.002H8.892v-1.666h1.732v-.98c0-1.406.976-2.549 2.314-2.549h1.618v1.773Z" fill="#fff"/></g><g clip-path="url('#clip1_1038_1495')"><path d="M86.76.966c-5.945 0-10.764 4.82-10.764 10.765s4.82 10.764 10.764 10.764c5.946 0 10.765-4.82 10.765-10.764 0-5.946-4.82-10.765-10.765-10.765Zm4.38 8.818c.004.092.005.184.005.274 0 2.803-2.132 6.033-6.032 6.033a5.982 5.982 0 0 1-3.25-.953c.166.02.335.028.506.028.994 0 1.908-.337 2.633-.907a2.125 2.125 0 0 1-1.98-1.471c.317.06.645.048.956-.037a2.121 2.121 0 0 1-1.7-2.079v-.026c.285.158.613.255.96.266a2.12 2.12 0 0 1-.656-2.832 6.028 6.028 0 0 0 4.37 2.216 2.121 2.121 0 0 1 3.613-1.934c.475-.094.93-.268 1.346-.514a2.13 2.13 0 0 1-.932 1.174c.42-.051.83-.164 1.218-.336a4.3 4.3 0 0 1-1.058 1.098Z" fill="#fff"/></g><g clip-path="url('#clip2_1038_1495')"><path d="M52.747 11.73a3.364 3.364 0 1 1-6.727 0c0-.191.02-.378.054-.56h-1.176v4.482c0 .312.252.564.564.564h7.844a.564.564 0 0 0 .563-.564V11.17h-1.176c.034.182.054.369.054.56Zm-3.364 2.243a2.244 2.244 0 1 0-.001-4.488 2.244 2.244 0 0 0 .002 4.488Zm2.692-4.597h1.344a.337.337 0 0 0 .338-.337V7.695a.338.338 0 0 0-.338-.337h-1.344a.337.337 0 0 0-.338.337v1.344a.34.34 0 0 0 .338.337ZM49.383.966a10.764 10.764 0 1 0 0 21.529 10.764 10.764 0 0 0 0-21.529Zm5.607 15.125a1.25 1.25 0 0 1-1.246 1.246h-8.721a1.25 1.25 0 0 1-1.246-1.246V7.37c0-.685.56-1.246 1.246-1.246h8.721c.685 0 1.246.56 1.246 1.246v8.721Z" fill="#fff"/></g><defs><clipPath id="clip0_1038_1495"><path fill="#fff" transform="translate(.793 .517)" d="M0 0h22.426v22.426H0z"/></clipPath><clipPath id="clip1_1038_1495"><path fill="#fff" transform="translate(75.547 .517)" d="M0 0h22.426v22.426H0z"/></clipPath><clipPath id="clip2_1038_1495"><path fill="#fff" transform="translate(38.17 .517)" d="M0 0h22.426v22.426H0z"/></clipPath></defs></svg>