<svg width="13" height="14" fill="none" xmlns="http://www.w3.org/2000/svg"><path d="m12.529 4.748-3.73-.586L7.13.506a.488.488 0 0 0-.213-.23c-.232-.124-.514-.02-.63.23L4.621 4.162l-3.73.586a.458.458 0 0 0-.269.148.532.532 0 0 0-.133.362.53.53 0 0 0 .142.358L3.33 8.46l-.638 4.018a.546.546 0 0 0 .028.277.504.504 0 0 0 .159.22.44.44 0 0 0 .495.038l3.336-1.897 3.336 1.897c.091.053.197.07.298.051.256-.048.428-.31.384-.586L10.09 8.46l2.699-2.845a.524.524 0 0 0 .136-.291c.04-.278-.14-.536-.396-.577Z" fill="#FDBF00"/></svg>