<svg width="14" height="14" fill="none" xmlns="http://www.w3.org/2000/svg"><path d="M12.977 4.748 9.24 4.162 7.57.506a.489.489 0 0 0-.214-.23c-.233-.124-.515-.02-.632.23l-1.67 3.656-3.737.586a.459.459 0 0 0-.27.148.531.531 0 0 0-.133.362.53.53 0 0 0 .142.358L3.76 8.46l-.639 4.018a.545.545 0 0 0 .028.277.504.504 0 0 0 .16.22.44.44 0 0 0 .496.038l3.342-1.897 3.342 1.897c.092.053.198.07.3.051.255-.048.427-.31.383-.586l-.639-4.018 2.704-2.845a.523.523 0 0 0 .137-.291c.04-.278-.14-.536-.397-.577Z" fill="#FDBF00"/></svg>