<svg width="22" height="25" fill="none" xmlns="http://www.w3.org/2000/svg"><path d="M.972 18.12c0 1.096.49 2.08 1.258 2.765v1.595c0 1.034.842 1.869 1.886 1.869a1.875 1.875 0 0 0 1.887-1.869v-.623h10.06v.623c0 1.022.843 1.869 1.887 1.869 1.032 0 1.887-.835 1.887-1.869v-1.595a3.705 3.705 0 0 0 1.257-2.766V5.66c0-4.36-4.502-4.983-10.06-4.983C5.473.677.971 1.3.971 5.66v12.46Zm4.402 1.245a1.875 1.875 0 0 1-1.887-1.868c0-1.035.843-1.87 1.887-1.87s1.886.835 1.886 1.87a1.875 1.875 0 0 1-1.886 1.868Zm11.319 0a1.875 1.875 0 0 1-1.887-1.868c0-1.035.843-1.87 1.887-1.87 1.043 0 1.886.835 1.886 1.87a1.875 1.875 0 0 1-1.886 1.868Zm1.886-7.475H3.487V5.66H18.58v6.23Z" fill="#fff"/></svg>