<svg width="14" height="14" fill="none" xmlns="http://www.w3.org/2000/svg"><path d="m12.741 4.748-3.73-.586L7.344.506a.488.488 0 0 0-.213-.23c-.232-.124-.514-.02-.63.23L4.833 4.162l-3.73.586a.458.458 0 0 0-.268.148.532.532 0 0 0-.133.362.53.53 0 0 0 .142.358L3.542 8.46l-.637 4.018a.546.546 0 0 0 .027.277.504.504 0 0 0 .16.22.44.44 0 0 0 .495.038l3.335-1.897 3.337 1.897c.09.053.196.07.298.051.255-.048.427-.31.383-.586l-.637-4.018L13 5.616a.522.522 0 0 0 .137-.291c.04-.278-.14-.536-.397-.577Z" fill="#FDBF00"/></svg>