<svg width="22" height="20" fill="none" xmlns="http://www.w3.org/2000/svg"><path d="M19.136 3.484c-.235-.643-.895-1.1-1.672-1.1h-2.946v-1.09c0-.6-.53-1.091-1.178-1.091H8.628c-.648 0-1.178.49-1.178 1.09v1.09H4.505c-.778 0-1.426.458-1.673 1.101L.512 9.666c-.083.229-.13.468-.13.72v7.805c0 .905.789 1.635 1.767 1.635.977 0 1.767-.73 1.767-1.635v-.545h14.137v.545c0 .894.789 1.635 1.767 1.635.966 0 1.767-.73 1.767-1.635v-7.806c0-.24-.047-.49-.13-.72l-2.32-6.18ZM4.505 14.375c-.978 0-1.767-.73-1.767-1.635s.789-1.635 1.767-1.635c.978 0 1.767.73 1.767 1.635s-.79 1.635-1.767 1.635Zm12.959 0c-.978 0-1.768-.73-1.768-1.635s.79-1.635 1.768-1.635c.977 0 1.767.73 1.767 1.635s-.79 1.635-1.768 1.635ZM2.737 8.925l1.767-4.906h12.959l1.767 4.905H2.738Z" fill="#fff"/></svg>