<svg width="20" height="19" fill="none" xmlns="http://www.w3.org/2000/svg"><g clip-path="url('#clip0_1038_1398')" fill="#1262AF"><path d="M9.98 17.106a7.702 7.702 0 1 1 0-15.404 7.702 7.702 0 0 1 0 15.404Zm0 1.1a8.802 8.802 0 1 0 0-17.605 8.802 8.802 0 0 0 0 17.605Z"/><path d="M8.015 5.666a.635.635 0 0 1 .66.048l4.442 3.173a.635.635 0 0 1 0 1.033l-4.442 3.173a.635.635 0 0 1-1.004-.516V6.23a.635.635 0 0 1 .344-.565Z"/></g><defs><clipPath id="clip0_1038_1398"><path fill="#fff" transform="translate(.636 .06)" d="M0 0h18.689v18.689H0z"/></clipPath></defs></svg>